<?xml version="1.0" encoding="utf-8"?>
<!DOCTYPE svg PUBLIC "-//W3C//DTD SVG 1.1//EN" "http://www.w3.org/Graphics/SVG/1.1/DTD/svg11.dtd">
<svg version="1.1" id="Layer_1" xmlns="http://www.w3.org/2000/svg" xmlns:xlink="http://www.w3.org/1999/xlink" x="0px" y="0px" width="320px" height="320px" viewBox="0 0 320 320" enable-background="new 0 0 320 320" xml:space="preserve">
	<polygon fill="#3498DB" points="130,120 110,120 100,160 90,120 70,120 60,160 70,200 80,160 90,200 110,200 120,160 130,200 140,160 "/>
	<polygon fill="#3498DB" points="220,160 210,120 190,120 180,160 190,200 200,160 210,200 230,200 240,160 230,120 "/>
	<polygon fill="#2C3E50" points="270,120 260,160 250,120 230,120 250,200 270,200 290,120 "/>
	<polygon fill="#2C3E50" points="170,120 150,120 130,200 150,200 160,160 170,200 190,200 "/>
	<polygon fill="#2C3E50" points="50,120 30,120 50,200 70,200 "/>
</svg>
